<svg width="356" height="235" viewBox="0 0 356 235" fill="none" xmlns="http://www.w3.org/2000/svg">
<path d="M108.982 79.9092C112.221 60.2784 101.243 47.1264 79.2855 46.5537C58.5883 46.3643 45.8103 57.4176 44.0119 75.906C41.1318 107.927 80.3657 119.553 78.9264 145.664C78.2068 159.578 70.8269 167.772 58.2292 167.583C44.7315 167.201 34.8322 153.098 40.5909 130.035C40.5909 124.507 27.0932 122.603 24.5722 126.986C16.1136 153.098 23.8526 180.924 56.6081 181.115C81.0854 181.306 97.642 168.727 98.901 145.093C100.701 114.787 62.3669 101.255 64.1653 77.05C64.8849 64.28 72.445 60.2784 78.9234 60.4677C87.9214 60.4677 94.221 65.6133 93.1408 79.3364C94.0407 84.8639 107.179 85.626 108.979 79.9092H108.982Z" fill="#CD1D15"/>
<path d="M137.958 87.1512C145.156 87.1512 150.197 82.3859 150.917 75.5252C151.817 68.8537 147.856 64.09 141.378 64.09C134.719 63.8991 129.678 68.6644 128.6 75.5252C127.7 82.1966 132.019 87.1512 137.958 87.1512ZM124.28 181.115C142.997 180.733 156.495 158.434 164.055 141.28C165.134 138.803 158.836 134.8 157.756 137.278C151.636 152.908 139.758 167.775 131.48 167.775C127.7 167.966 127.88 162.819 129.319 155.196C132.019 142.235 135.799 129.846 142.817 103.353C141.558 98.7789 126.8 96.4925 123.92 100.876C117.62 123.939 113.301 139.375 109.342 157.293C106.103 171.969 109.342 181.498 124.28 181.116V181.115Z" fill="#CD1D15"/>
<path d="M252.25 181.115C269.708 180.544 282.845 157.863 290.225 141.09C291.304 138.803 284.825 134.99 283.925 137.278C277.447 153.478 266.287 167.774 259.448 167.774C250.089 167.965 262.148 136.897 265.207 123.174C268.626 107.545 264.846 98.2068 251.17 98.2068C239.47 98.0159 229.572 107.927 222.733 117.266C224.714 105.831 219.673 98.2068 210.134 98.2068C199.336 98.0159 187.998 109.262 181.698 118.6L185.658 103.543C184.758 98.0159 169.82 96.4916 166.94 100.684C159.921 128.702 154.342 149.858 148.042 175.208C147.323 181.879 166.399 181.688 168.02 177.305C171.259 162.437 174.139 149.478 178.279 134.802C184.398 123.556 193.217 113.836 198.795 113.836C204.015 113.645 203.654 119.936 202.395 124.891C197.715 144.904 194.117 160.342 190.517 176.352C191.237 181.879 208.334 181.308 210.314 177.114C213.014 166.25 216.793 147.761 220.034 135.373C223.992 125.08 234.612 113.645 240.91 113.454C246.67 113.454 245.59 120.126 244.329 125.652C241.99 135.753 237.67 152.336 236.41 159.959C234.071 172.92 238.21 181.686 252.248 181.115H252.25Z" fill="#CD1D15"/>
<path d="M345.47 160.15C357.169 142.615 364.547 99.541 337.372 98.5879C326.933 98.0151 316.496 103.924 308.936 111.738C309.655 109.641 310.916 106.211 311.455 103.924C310.375 97.253 293.997 97.0636 292.917 100.874C281.039 147.189 271.32 187.977 261.782 231.243C261.602 235.627 278.699 236.389 280.68 232.386C284.999 212.755 289.679 192.551 293.999 173.11C304.796 184.356 324.954 184.356 339.712 167.773M327.115 113.263C337.774 113.599 335.231 128.796 331.805 144.414C331.199 147.183 329.549 151.426 328.664 154.041C328.214 155.371 325.774 159.5 323.515 161.673C316.497 169.869 303.178 169.296 297.059 160.72C300.298 148.141 302.819 137.086 306.058 124.889C311.819 118.599 320.636 113.072 327.116 113.263H327.115Z" fill="#CD1D15"/>
<path fill-rule="evenodd" clip-rule="evenodd" d="M71.3042 33.5527C68.8398 31.8154 64.711 28.4166 61.3392 22.7029C58.2967 17.5495 57.1494 12.6816 56.6697 9.69144L58.328 6.33206L54.5315 0.151367L53.7046 7.63069L56.6011 9.76402C57.4683 18.0307 57.6217 25.8666 56.2882 32.7984C54.8832 40.0979 53.9907 41.701 46.8388 38.0324C41.5405 35.3152 36.4582 29.9913 31.2656 25.9724L31.6768 19.0011L17.4625 9.73089L22.6491 26.5357L29.1439 27.7412C31.6202 34.026 35.3198 40.5065 36.5759 46.5973C38.273 54.8182 36.5923 55.361 29.5611 55.1023C22.8845 54.8545 15.7267 52.8648 8.34087 50.0387L7.0595 46.561L0 45.6647L4.78729 51.0202L8.2619 50.0955C11.9243 52.2462 16.5774 55.4731 21.2977 60.2131C25.7453 64.6802 28.91 69.141 31.0957 72.737C33.6123 67.0076 38.4249 57.9236 47.1457 49.2987C56.2703 40.2762 65.6155 35.7696 71.3042 33.5542V33.5527Z" fill="#CD1D15"/>
<path fill-rule="evenodd" clip-rule="evenodd" d="M30.802 47.9653C32.2159 49.1725 33.6821 50.3654 35.2287 51.3815C35.2331 50.6794 35.1348 49.5922 34.8159 47.8975C31.4695 45.3271 28.1871 41.9708 24.7974 39.8975C25.9998 44.1925 28.6057 48.7101 30.1672 53.0636C30.9286 53.0904 31.9224 53.1109 32.8224 53.0699C32.2621 51.3279 31.544 49.6237 30.802 47.9669V47.9653Z" fill="#CD1D15"/>
<path fill-rule="evenodd" clip-rule="evenodd" d="M49.4254 32.4279C50.7798 33.5829 52.1818 34.7253 53.6554 35.7131C53.9057 34.8026 54.1188 33.777 54.2738 32.9801C50.6367 30.3529 47.0906 26.6038 43.4208 24.3584C44.5293 28.3174 46.8298 32.4657 48.4077 36.4989C49.8843 37.2247 50.8662 37.5845 51.5188 37.7517C50.9481 35.934 50.1987 34.1557 49.4254 32.4279Z" fill="#CD1D15"/>
<path fill-rule="evenodd" clip-rule="evenodd" d="M72.1683 27.1462C70.8392 24.6232 69.6622 21.7861 68.1528 19.6338C67.8906 22.1222 68.132 24.9372 68.205 27.6433C68.7786 28.1735 69.3776 28.6768 69.9974 29.1612C70.0034 28.3786 69.984 27.5944 69.9557 26.8196C70.2999 27.5155 70.656 28.2113 71.0359 28.8914C71.3727 28.5332 71.7541 27.9825 72.1683 27.1462Z" fill="#CD1D15"/>
<path fill-rule="evenodd" clip-rule="evenodd" d="M22.038 66.1683C19.5706 65.4599 17.0421 64.5541 14.6954 64.2417C16.318 66.2993 18.6483 68.1723 20.6538 70.1321C21.518 69.9017 22.1125 69.6366 22.5208 69.3747C21.9844 68.8255 21.4286 68.2938 20.8714 67.7778C21.5761 67.9893 22.2913 68.1928 23.0125 68.368C22.7145 67.6184 22.3911 66.8831 22.038 66.1683Z" fill="#CD1D15"/>
</svg>
